<svg viewBox="0 0 420 80" fill="none" xmlns="http://www.w3.org/2000/svg" width="420" height="80">
  <defs>
    <linearGradient id="shieldGrad" x1="0" y1="0" x2="0" y2="1">
      <stop offset="0%" stop-color="#4d84ff"/>
      <stop offset="100%" stop-color="#1a4fd6"/>
    </linearGradient>
  </defs>
  <g transform="translate(0,4)">
    <polygon points="36,0 68,16 68,44 36,60 4,44 4,16" fill="none" stroke="#2563ff" stroke-width="2"/>
    <polygon points="36,8 60,20 60,40 36,52 12,40 12,20" fill="none" stroke="#4d84ff" stroke-width="1" opacity="0.5"/>
    <line x1="36" y1="0" x2="36" y2="8" stroke="#2563ff" stroke-width="1.5"/>
    <line x1="36" y1="52" x2="36" y2="60" stroke="#2563ff" stroke-width="1.5"/>
    <line x1="4" y1="16" x2="12" y2="20" stroke="#2563ff" stroke-width="1.5"/>
    <line x1="68" y1="16" x2="60" y2="20" stroke="#2563ff" stroke-width="1.5"/>
    <line x1="4" y1="44" x2="12" y2="40" stroke="#2563ff" stroke-width="1.5"/>
    <line x1="68" y1="44" x2="60" y2="40" stroke="#2563ff" stroke-width="1.5"/>
    <polygon points="36,18 44,22 44,34 36,40 28,34 28,22" fill="url(#shieldGrad)" opacity="0.9"/>
    <polygon points="36,22 41,25 41,32 36,36 31,32 31,25" fill="none" stroke="#6ea0ff" stroke-width="0.75" opacity="0.6"/>
    <circle cx="36" cy="29" r="3.5" fill="#050507"/>
    <circle cx="36" cy="29" r="2" fill="#00d4ff"/>
    <line x1="36" y1="18" x2="36" y2="22" stroke="#6ea0ff" stroke-width="0.75" opacity="0.7"/>
    <line x1="36" y1="36" x2="36" y2="40" stroke="#6ea0ff" stroke-width="0.75" opacity="0.7"/>
  </g>
  <text x="90" y="52" font-family="Rajdhani, Arial Narrow, sans-serif" font-weight="700" font-size="46" fill="#e8eaf2" letter-spacing="2">SENTINEL</text>
  <text x="348" y="52" font-family="Rajdhani, Arial Narrow, sans-serif" font-weight="700" font-size="46" fill="#4d84ff" letter-spacing="2">FX</text>
  <line x1="90" y1="58" x2="410" y2="58" stroke="#1a2a5e" stroke-width="0.75"/>
  <text x="90" y="70" font-family="Space Mono, Courier New, monospace" font-size="9" fill="#3a4060" letter-spacing="4">NETWORK PROTECTION SYSTEM</text>
</svg>
