<svg width="260" height="64" viewBox="0 0 260 64" fill="none" xmlns="http://www.w3.org/2000/svg">
  <defs>
    <linearGradient id="eg" x1="0" y1="0" x2="0" y2="1">
      <stop offset="0%" stop-color="#00d4ff"/>
      <stop offset="100%" stop-color="#2563ff"/>
    </linearGradient>
  </defs>
  <g transform="translate(0, 4)">
    <polygon points="28,0 52,12 52,36 28,48 4,36 4,12" fill="none" stroke="#2563ff" stroke-width="1.5"/>
    <polygon points="28,6 46,15 46,33 28,42 10,33 10,15" fill="none" stroke="#1a2a5e" stroke-width="0.75"/>
    <line x1="28" y1="0"  x2="28" y2="6"  stroke="#2563ff" stroke-width="1.5"/>
    <line x1="28" y1="42" x2="28" y2="48" stroke="#2563ff" stroke-width="1.5"/>
    <line x1="4"  y1="12" x2="10" y2="15" stroke="#2563ff" stroke-width="1.5"/>
    <line x1="52" y1="12" x2="46" y2="15" stroke="#2563ff" stroke-width="1.5"/>
    <line x1="4"  y1="36" x2="10" y2="33" stroke="#2563ff" stroke-width="1.5"/>
    <line x1="52" y1="36" x2="46" y2="33" stroke="#2563ff" stroke-width="1.5"/>
    <path d="M28 24 L28 8 A16 16 0 0 1 42 32 Z" fill="#2563ff" opacity="0.08"/>
    <ellipse cx="28" cy="24" rx="10" ry="6" fill="none" stroke="#2563ff" stroke-width="1.25"/>
    <line x1="20" y1="20.5" x2="19" y2="18" stroke="#2563ff" stroke-width="0.9" opacity="0.6"/>
    <line x1="24" y1="18.5" x2="23.5" y2="16" stroke="#2563ff" stroke-width="0.9" opacity="0.5"/>
    <line x1="28" y1="18" x2="28" y2="15" stroke="#2563ff" stroke-width="0.9" opacity="0.6"/>
    <line x1="32" y1="18.5" x2="32.5" y2="16" stroke="#2563ff" stroke-width="0.9" opacity="0.5"/>
    <line x1="36" y1="20.5" x2="37" y2="18" stroke="#2563ff" stroke-width="0.9" opacity="0.6"/>
    <circle cx="28" cy="24" r="4" fill="#050507" stroke="#4d84ff" stroke-width="0.75"/>
    <circle cx="28" cy="24" r="1.8" fill="url(#eg)"/>
    <circle cx="29.2" cy="23" r="0.7" fill="#fff" opacity="0.65"/>
  </g>
  <text x="68" y="38"
    font-family="'Rajdhani','Arial Narrow',sans-serif"
    font-weight="700" font-size="30" fill="#e4e6f0" letter-spacing="1.5">WATCHDOG</text>
  <line x1="68" y1="43" x2="256" y2="43" stroke="#1a2a5e" stroke-width="0.75"/>
  <text x="68" y="54"
    font-family="'Space Mono','Courier New',monospace"
    font-size="8" fill="#3a4060" letter-spacing="3.5">BY SENTINELFX</text>
</svg>
