<svg width="128" height="128" viewBox="0 0 128 128" fill="none" xmlns="http://www.w3.org/2000/svg">
  <rect width="128" height="128" fill="#050507"/>
  <defs><linearGradient id="s1" x1="0" y1="0" x2="0" y2="1"><stop offset="0%" stop-color="#4d84ff"/><stop offset="100%" stop-color="#1a4fd6"/></linearGradient></defs>
  <g transform="translate(64,64)">
    <polygon points="0,-52 45,-26 45,26 0,52 -45,26 -45,-26" fill="none" stroke="#2563ff" stroke-width="3.5"/>
    <polygon points="0,-38 33,-19 33,19 0,38 -33,19 -33,-19" fill="none" stroke="#4d84ff" stroke-width="1.5" opacity="0.45"/>
    <line x1="0" y1="-52" x2="0" y2="-38" stroke="#2563ff" stroke-width="3"/>
    <line x1="0" y1="38" x2="0" y2="52" stroke="#2563ff" stroke-width="3"/>
    <line x1="-45" y1="-26" x2="-33" y2="-19" stroke="#2563ff" stroke-width="3"/>
    <line x1="45" y1="-26" x2="33" y2="-19" stroke="#2563ff" stroke-width="3"/>
    <line x1="-45" y1="26" x2="-33" y2="19" stroke="#2563ff" stroke-width="3"/>
    <line x1="45" y1="26" x2="33" y2="19" stroke="#2563ff" stroke-width="3"/>
    <polygon points="0,-20 13,-13 13,13 0,20 -13,13 -13,-13" fill="url(#s1)"/>
    <polygon points="0,-13 8,-9 8,9 0,13 -8,9 -8,-9" fill="none" stroke="#6ea0ff" stroke-width="1" opacity="0.5"/>
    <circle r="6" fill="#050507"/>
    <circle r="3.5" fill="#00d4ff"/>
  </g>
</svg>
