<svg xmlns="http://www.w3.org/2000/svg" viewBox="0 0 128 128" width="128" height="128">
  
  <path d="M14 32 Q14 18 28 18 L100 18 Q114 18 114 32 L114 78 Q114 92 100 92 L58 92 L38 114 L42 92 L28 92 Q14 92 14 78 Z"
        fill="#0a1a14" stroke="#00e87a" stroke-width="6" stroke-linejoin="round"/>
  <path d="M14 32 Q14 18 28 18 L100 18 Q114 18 114 32 L114 78 Q114 92 100 92 L58 92 L38 114 L42 92 L28 92 Q14 92 14 78 Z"
        fill="none" stroke="#1d9e75" stroke-width="2" opacity="0.4"/>
  
  <line x1="64" y1="32" x2="64" y2="72" stroke="#00e87a" stroke-width="5" stroke-linecap="round"/>
  <line x1="48" y1="40" x2="80" y2="40" stroke="#00e87a" stroke-width="5" stroke-linecap="round"/>
  <path d="M42 40 L54 62 L36 62 Z" fill="#00e87a" opacity="0.85"/>
  <path d="M86 40 L74 62 L92 62 Z" fill="#00e87a" opacity="0.85"/>
</svg>
