<svg xmlns="http://www.w3.org/2000/svg" viewBox="0 0 128 128" width="128" height="128">
  
  <g stroke="#4d84ff" stroke-width="4" opacity="0.7">
    <line x1="64" y1="64" x2="24" y2="24"/>
    <line x1="64" y1="64" x2="104" y2="24"/>
    <line x1="64" y1="64" x2="24" y2="104"/>
    <line x1="64" y1="64" x2="104" y2="104"/>
    <line x1="64" y1="64" x2="64" y2="16"/>
    <line x1="64" y1="64" x2="112" y2="64"/>
    <line x1="64" y1="64" x2="64" y2="112"/>
    <line x1="64" y1="64" x2="16" y2="64"/>
  </g>
  
  <g fill="#4d84ff" stroke="#0a1430" stroke-width="3">
    <circle cx="24" cy="24" r="9"/>
    <circle cx="104" cy="24" r="9"/>
    <circle cx="24" cy="104" r="9"/>
    <circle cx="104" cy="104" r="9"/>
    <circle cx="64" cy="16" r="9"/>
    <circle cx="112" cy="64" r="9"/>
    <circle cx="64" cy="112" r="9"/>
    <circle cx="16" cy="64" r="9"/>
  </g>
  
  <circle cx="64" cy="64" r="18" fill="#0a1430" stroke="#00d4ff" stroke-width="5"/>
  <circle cx="64" cy="64" r="7" fill="#00d4ff"/>
</svg>
