<svg width="128" height="128" viewBox="0 0 128 128" fill="none" xmlns="http://www.w3.org/2000/svg">
  <rect width="128" height="128" fill="#050507"/>
  <g transform="translate(64,64)">
    <circle r="10" fill="#050a1a" stroke="#2563ff" stroke-width="2.5"/>
    <circle r="4.5" fill="#2563ff"/>
    <line x1="0" y1="-10" x2="0" y2="-30" stroke="#1a2a5e" stroke-width="2" stroke-dasharray="3 2"/>
    <line x1="0" y1="10"  x2="0" y2="30"  stroke="#1a2a5e" stroke-width="2" stroke-dasharray="3 2"/>
    <line x1="-10" y1="0" x2="-30" y2="0"  stroke="#1a2a5e" stroke-width="2" stroke-dasharray="3 2"/>
    <line x1="10" y1="0"  x2="30" y2="0"   stroke="#1a2a5e" stroke-width="2" stroke-dasharray="3 2"/>
    <line x1="-7" y1="-7" x2="-21" y2="-21" stroke="#1a2a5e" stroke-width="2" stroke-dasharray="3 2"/>
    <line x1="7" y1="-7"  x2="21" y2="-21" stroke="#1a2a5e" stroke-width="2" stroke-dasharray="3 2"/>
    <line x1="-7" y1="7"  x2="-21" y2="21" stroke="#1a2a5e" stroke-width="2" stroke-dasharray="3 2"/>
    <line x1="7" y1="7"   x2="21" y2="21"  stroke="#1a2a5e" stroke-width="2" stroke-dasharray="3 2"/>
    <rect x="-6" y="-42" width="12" height="12" rx="2" fill="#050a1a" stroke="#4d84ff" stroke-width="2"/>
    <rect x="-6" y="30"  width="12" height="12" rx="2" fill="#050a1a" stroke="#4d84ff" stroke-width="2"/>
    <rect x="-42" y="-6" width="12" height="12" rx="2" fill="#050a1a" stroke="#4d84ff" stroke-width="2"/>
    <rect x="30" y="-6"  width="12" height="12" rx="2" fill="#050a1a" stroke="#4d84ff" stroke-width="2"/>
    <rect x="-31" y="-31" width="10" height="10" rx="2" fill="#050a1a" stroke="#2563ff" stroke-width="2"/>
    <rect x="21" y="-31"  width="10" height="10" rx="2" fill="#050a1a" stroke="#2563ff" stroke-width="2"/>
    <rect x="-31" y="21"  width="10" height="10" rx="2" fill="#050a1a" stroke="#2563ff" stroke-width="2"/>
    <rect x="21" y="21"   width="10" height="10" rx="2" fill="#050a1a" stroke="#2563ff" stroke-width="2"/>
  </g>
</svg>
