<svg xmlns="http://www.w3.org/2000/svg" viewBox="0 0 128 128" width="128" height="128">
  
  <g stroke="#ffb020" stroke-width="5" stroke-linecap="round" opacity="0.95">
    <line x1="8"  y1="70"  x2="2"  y2="62"/>
    <line x1="12" y1="92"  x2="2"  y2="92"/>
    <line x1="28" y1="114" x2="22" y2="122"/>
    <line x1="46" y1="118" x2="50" y2="126"/>
  </g>

  <g transform="rotate(-35 64 64)">
    
    <rect x="60" y="58" width="52" height="12" rx="4" fill="#8b5a1c" stroke="#3a240c" stroke-width="3"/>
    
    <g stroke="#3a240c" stroke-width="2">
      <line x1="74" y1="58" x2="74" y2="70"/>
      <line x1="86" y1="58" x2="86" y2="70"/>
      <line x1="98" y1="58" x2="98" y2="70"/>
    </g>
    
    <rect x="108" y="54" width="14" height="20" rx="3" fill="#3a240c"/>

    <rect x="16" y="34" width="46" height="60" rx="6" fill="#e24b4a" stroke="#6a1818" stroke-width="5"/>
    <rect x="16" y="34" width="46" height="60" rx="6" fill="none" stroke="#ff7070" stroke-width="2" opacity="0.55"/>
    
    <rect x="16" y="58" width="46" height="12" fill="#8b1818"/>
    
    <circle cx="26" cy="44" r="3" fill="#ff7070"/>
    <circle cx="52" cy="44" r="3" fill="#ff7070"/>
    <circle cx="26" cy="84" r="3" fill="#ff7070"/>
    <circle cx="52" cy="84" r="3" fill="#ff7070"/>
    
    <path d="M 42 40 L 28 62 L 40 62 L 32 88"
          fill="none" stroke="#ffc947" stroke-width="5"
          stroke-linecap="round" stroke-linejoin="round"/>
  </g>
</svg>
